<svg width="672" height="372" viewBox="0 0 672 372" fill="none" xmlns="http://www.w3.org/2000/svg">
<path d="M661.363 0.647461C662.236 0.406683 663.344 0.464567 664.53 0.792969C665.711 1.11974 666.933 1.7044 668.019 2.4707C670.22 4.02523 671.711 6.2087 671.407 8.375C670.578 14.2963 667.69 19.3404 664.66 24.5566C649.692 49.6991 633.923 74.5078 618.376 99.3154L535.816 230.94L491.678 301.149C485.055 311.665 478.744 322.987 471.099 332.541C469.466 334.581 466.502 334.899 463.262 334.335C460.058 333.777 456.79 332.388 454.816 331.301C442.588 324.562 430.598 317.264 418.624 309.922C406.653 302.581 394.696 295.195 382.549 288.285L382.296 288.142L382.047 288.289L381.562 288.576L381.56 288.578C378.624 290.349 374.291 294.158 369.31 298.788C364.301 303.444 358.64 308.926 352.964 314.145C347.296 319.355 341.664 324.255 336.772 327.695C334.326 329.416 332.082 330.76 330.123 331.597C328.151 332.439 326.538 332.737 325.322 332.463C322.94 331.926 320.953 330.126 319.733 327.977C315.319 320.197 312.521 310.679 309.845 301.009C307.176 291.365 304.627 281.565 300.704 273.333L300.51 272.927L300.085 273.077C283.788 278.862 258.468 291.225 242.095 298.604L130.79 348.652C125.08 351.185 113.925 356.293 102.89 361.03C97.3726 363.398 91.8913 365.671 87.1436 367.479C82.4707 369.26 78.5373 370.577 75.9824 371.103C70.8035 369.162 67.3234 366.349 66.3867 363.213C65.4655 360.129 66.9429 356.443 72.4336 352.596C77.571 348.996 83.265 345.972 88.8496 342.905L91.2344 341.587C102.007 335.565 112.818 329.611 123.667 323.729C161.014 303.548 198.512 283.646 236.157 264.026L236.161 264.025C250.141 256.599 275.379 244.143 287.99 236.21L288.302 236.014L288.208 235.658C286.458 229.056 283.409 218.525 280.69 212.117L280.642 212.001L280.543 211.922L280.141 211.605C275.856 208.29 267.853 203.735 263.175 201.315L262.961 201.204L262.741 201.303C257.449 203.674 253.988 204.656 248.745 206.638L247.639 207.056L248.709 207.558C252.569 209.369 257.987 211.817 262.837 214.859C267.707 217.915 271.891 221.504 273.404 225.551V225.552C274.432 228.321 274.271 231.393 272.956 234.038L272.954 234.041C271.984 236.032 270.124 237.924 267.965 239.558C265.813 241.186 263.405 242.527 261.392 243.429C246.808 249.964 231.796 255.871 217.045 262.164L112.307 306.615C91.8067 315.326 71.3634 324.17 50.9785 333.147V333.148C45.5682 335.54 37.7823 339.384 29.9014 342.695C22.0787 345.982 14.308 348.675 8.89844 348.853C5.57504 347.166 2.75189 344.792 1.38477 342.159C0.697531 340.836 0.382832 339.458 0.540039 338.066C0.697179 336.677 1.32939 335.232 2.60547 333.781C6.00372 329.919 12.6871 325.687 19.7305 321.796C26.7679 317.908 34.042 314.423 38.6504 311.996L38.6494 311.995L88.0771 286.189C120.25 269.378 156.806 249.355 189.527 233.794L192.682 232.302C199.038 229.572 204.371 226.693 210.34 223.283L209.992 222.359C202.841 223.816 198.012 225.953 191.361 228.683L191.358 228.684C185.437 231.156 174.442 235.618 163.475 239.652C152.559 243.667 141.736 247.233 135.952 248.024C130.473 246.109 126.609 243.198 125.462 239.885C124.339 236.64 125.749 232.725 131.565 228.604C135.945 225.5 140.916 223.37 145.685 220.714L145.686 220.715C158.572 213.56 171.947 207.011 185.347 200.509C198.743 194.009 212.167 187.554 225.135 180.593L225.867 180.2L225.177 179.737C216.185 173.713 205.83 168.11 197.139 162.914C194.075 161.083 188.125 157.952 183.738 154.229C181.544 152.366 179.8 150.4 178.994 148.43C178.206 146.502 178.308 144.559 179.842 142.618C180.333 141.996 181.168 141.331 182.312 140.64C183.447 139.952 184.855 139.258 186.46 138.566C189.669 137.183 193.629 135.828 197.7 134.573C205.859 132.059 214.352 129.983 218.137 128.896L279.758 111.246L576.742 26.1602L576.741 26.1592C597.09 20.3854 617.385 14.4271 637.625 8.28223L637.627 8.28125C645.615 5.81634 653.464 2.82546 661.363 0.647461Z" fill="white"/>
<path d="M661.363 0.647461C662.236 0.406683 663.344 0.464567 664.53 0.792969C665.711 1.11974 666.933 1.7044 668.019 2.4707C670.22 4.02523 671.711 6.2087 671.407 8.375C670.578 14.2963 667.69 19.3404 664.66 24.5566C649.692 49.6991 633.923 74.5078 618.376 99.3154L535.816 230.94L491.678 301.149C485.055 311.665 478.744 322.987 471.099 332.541C469.466 334.581 466.502 334.899 463.262 334.335C460.058 333.777 456.79 332.388 454.816 331.301C442.588 324.562 430.598 317.264 418.624 309.922C406.653 302.581 394.696 295.195 382.549 288.285L382.296 288.142L382.047 288.289L381.562 288.576L381.56 288.578C378.624 290.349 374.291 294.158 369.31 298.788C364.301 303.444 358.64 308.926 352.964 314.145C347.296 319.355 341.664 324.255 336.772 327.695C334.326 329.416 332.082 330.76 330.123 331.597C328.151 332.439 326.538 332.737 325.322 332.463C322.94 331.926 320.953 330.126 319.733 327.977C315.319 320.197 312.521 310.679 309.845 301.009C307.176 291.365 304.627 281.565 300.704 273.333L300.51 272.927L300.085 273.077C283.788 278.862 258.468 291.225 242.095 298.604L130.79 348.652C125.08 351.185 113.925 356.293 102.89 361.03C97.3726 363.398 91.8913 365.671 87.1436 367.479C82.4707 369.26 78.5373 370.577 75.9824 371.103C70.8035 369.162 67.3234 366.349 66.3867 363.213C65.4655 360.129 66.9429 356.443 72.4336 352.596C77.571 348.996 83.265 345.972 88.8496 342.905L91.2344 341.587C102.007 335.565 112.818 329.611 123.667 323.729C161.014 303.548 198.512 283.646 236.157 264.026L236.161 264.025C250.141 256.599 275.379 244.143 287.99 236.21L288.302 236.014L288.208 235.658C286.458 229.056 283.409 218.525 280.69 212.117L280.642 212.001L280.543 211.922L280.141 211.605C275.856 208.29 267.853 203.735 263.175 201.315L262.961 201.204L262.741 201.303C257.449 203.674 253.988 204.656 248.745 206.638L247.639 207.056L248.709 207.558C252.569 209.369 257.987 211.817 262.837 214.859C267.707 217.915 271.891 221.504 273.404 225.551V225.552C274.432 228.321 274.271 231.393 272.956 234.038L272.954 234.041C271.984 236.032 270.124 237.924 267.965 239.558C265.813 241.186 263.405 242.527 261.392 243.429C246.808 249.964 231.796 255.871 217.045 262.164L112.307 306.615C91.8067 315.326 71.3634 324.17 50.9785 333.147V333.148C45.5682 335.54 37.7823 339.384 29.9014 342.695C22.0787 345.982 14.308 348.675 8.89844 348.853C5.57504 347.166 2.75189 344.792 1.38477 342.159C0.697531 340.836 0.382832 339.458 0.540039 338.066C0.697179 336.677 1.32939 335.232 2.60547 333.781C6.00372 329.919 12.6871 325.687 19.7305 321.796C26.7679 317.908 34.042 314.423 38.6504 311.996L38.6494 311.995L88.0771 286.189C120.25 269.378 156.806 249.355 189.527 233.794L192.682 232.302C199.038 229.572 204.371 226.693 210.34 223.283L209.992 222.359C202.841 223.816 198.012 225.953 191.361 228.683L191.358 228.684C185.437 231.156 174.442 235.618 163.475 239.652C152.559 243.667 141.736 247.233 135.952 248.024C130.473 246.109 126.609 243.198 125.462 239.885C124.339 236.64 125.749 232.725 131.565 228.604C135.945 225.5 140.916 223.37 145.685 220.714L145.686 220.715C158.572 213.56 171.947 207.011 185.347 200.509C198.743 194.009 212.167 187.554 225.135 180.593L225.867 180.2L225.177 179.737C216.185 173.713 205.83 168.11 197.139 162.914C194.075 161.083 188.125 157.952 183.738 154.229C181.544 152.366 179.8 150.4 178.994 148.43C178.206 146.502 178.308 144.559 179.842 142.618C180.333 141.996 181.168 141.331 182.312 140.64C183.447 139.952 184.855 139.258 186.46 138.566C189.669 137.183 193.629 135.828 197.7 134.573C205.859 132.059 214.352 129.983 218.137 128.896L279.758 111.246L576.742 26.1602L576.741 26.1592C597.09 20.3854 617.385 14.4271 637.625 8.28223L637.627 8.28125C645.615 5.81634 653.464 2.82546 661.363 0.647461Z" stroke="white" stroke-opacity="0.0117647"/>
<path d="M661.363 0.647461C662.236 0.406683 663.344 0.464567 664.53 0.792969C665.711 1.11974 666.933 1.7044 668.019 2.4707C670.22 4.02523 671.711 6.2087 671.407 8.375C670.578 14.2963 667.69 19.3404 664.66 24.5566C649.692 49.6991 633.923 74.5078 618.376 99.3154L535.816 230.94L491.678 301.149C485.055 311.665 478.744 322.987 471.099 332.541C469.466 334.581 466.502 334.899 463.262 334.335C460.058 333.777 456.79 332.388 454.816 331.301C442.588 324.562 430.598 317.264 418.624 309.922C406.653 302.581 394.696 295.195 382.549 288.285L382.296 288.142L382.047 288.289L381.562 288.576L381.56 288.578C378.624 290.349 374.291 294.158 369.31 298.788C364.301 303.444 358.64 308.926 352.964 314.145C347.296 319.355 341.664 324.255 336.772 327.695C334.326 329.416 332.082 330.76 330.123 331.597C328.151 332.439 326.538 332.737 325.322 332.463C322.94 331.926 320.953 330.126 319.733 327.977C315.319 320.197 312.521 310.679 309.845 301.009C307.176 291.365 304.627 281.565 300.704 273.333L300.51 272.927L300.085 273.077C283.788 278.862 258.468 291.225 242.095 298.604L130.79 348.652C125.08 351.185 113.925 356.293 102.89 361.03C97.3726 363.398 91.8913 365.671 87.1436 367.479C82.4707 369.26 78.5373 370.577 75.9824 371.103C70.8035 369.162 67.3234 366.349 66.3867 363.213C65.4655 360.129 66.9429 356.443 72.4336 352.596C77.571 348.996 83.265 345.972 88.8496 342.905L91.2344 341.587C102.007 335.565 112.818 329.611 123.667 323.729C161.014 303.548 198.512 283.646 236.157 264.026L236.161 264.025C250.141 256.599 275.379 244.143 287.99 236.21L288.302 236.014L288.208 235.658C286.458 229.056 283.409 218.525 280.69 212.117L280.642 212.001L280.543 211.922L280.141 211.605C275.856 208.29 267.853 203.735 263.175 201.315L262.961 201.204L262.741 201.303C257.449 203.674 253.988 204.656 248.745 206.638L247.639 207.056L248.709 207.558C252.569 209.369 257.987 211.817 262.837 214.859C267.707 217.915 271.891 221.504 273.404 225.551V225.552C274.432 228.321 274.271 231.393 272.956 234.038L272.954 234.041C271.984 236.032 270.124 237.924 267.965 239.558C265.813 241.186 263.405 242.527 261.392 243.429C246.808 249.964 231.796 255.871 217.045 262.164L112.307 306.615C91.8067 315.326 71.3634 324.17 50.9785 333.147V333.148C45.5682 335.54 37.7823 339.384 29.9014 342.695C22.0787 345.982 14.308 348.675 8.89844 348.853C5.57504 347.166 2.75189 344.792 1.38477 342.159C0.697531 340.836 0.382832 339.458 0.540039 338.066C0.697179 336.677 1.32939 335.232 2.60547 333.781C6.00372 329.919 12.6871 325.687 19.7305 321.796C26.7679 317.908 34.042 314.423 38.6504 311.996L38.6494 311.995L88.0771 286.189C120.25 269.378 156.806 249.355 189.527 233.794L192.682 232.302C199.038 229.572 204.371 226.693 210.34 223.283L209.992 222.359C202.841 223.816 198.012 225.953 191.361 228.683L191.358 228.684C185.437 231.156 174.442 235.618 163.475 239.652C152.559 243.667 141.736 247.233 135.952 248.024C130.473 246.109 126.609 243.198 125.462 239.885C124.339 236.64 125.749 232.725 131.565 228.604C135.945 225.5 140.916 223.37 145.685 220.714L145.686 220.715C158.572 213.56 171.947 207.011 185.347 200.509C198.743 194.009 212.167 187.554 225.135 180.593L225.867 180.2L225.177 179.737C216.185 173.713 205.83 168.11 197.139 162.914C194.075 161.083 188.125 157.952 183.738 154.229C181.544 152.366 179.8 150.4 178.994 148.43C178.206 146.502 178.308 144.559 179.842 142.618C180.333 141.996 181.168 141.331 182.312 140.64C183.447 139.952 184.855 139.258 186.46 138.566C189.669 137.183 193.629 135.828 197.7 134.573C205.859 132.059 214.352 129.983 218.137 128.896L279.758 111.246L576.742 26.1602L576.741 26.1592C597.09 20.3854 617.385 14.4271 637.625 8.28223L637.627 8.28125C645.615 5.81634 653.464 2.82546 661.363 0.647461Z" stroke="#1F3E65"/>
<path d="M658.936 14.0008C658.236 15.0235 657.547 16.0263 657.017 16.7889C656.751 17.1704 656.526 17.4907 656.36 17.7225C656.277 17.8386 656.209 17.9304 656.16 17.9959C656.098 18.0783 656.09 18.0842 656.11 18.0652L656.041 18.1307L656.001 18.2166C653.42 23.7796 650.268 29.0572 647.136 34.3651C635.367 54.3007 622.703 73.6999 610.374 93.3133L515.706 243.331L485.589 290.909C478.316 302.405 470.693 313.927 464.412 326.032C458.092 322.334 438.891 310.289 420.337 298.93C410.832 293.111 401.5 287.474 394.171 283.243C390.507 281.128 387.339 279.361 384.897 278.097C383.677 277.466 382.633 276.956 381.796 276.592C380.977 276.235 380.307 275.993 379.856 275.933L379.677 275.91L379.524 276.006C376.36 277.995 372.239 281.549 368.225 285.252C364.206 288.958 360.251 292.854 357.44 295.524L357.438 295.526C347.678 304.904 337.701 314.053 327.52 322.971C321.266 303.488 313.91 278.201 306.786 259.726L306.658 259.394L306.303 259.407C305.949 259.419 305.359 259.579 304.628 259.819C303.871 260.068 302.895 260.426 301.733 260.878C299.409 261.782 296.32 263.068 292.711 264.618C285.491 267.718 276.173 271.881 266.698 276.167C247.739 284.744 228.164 293.81 223.449 295.885C189.475 310.829 149.639 329.771 115.031 344.674C110.607 346.579 103.007 350.494 95.5342 353.995C91.7845 355.751 88.0553 357.41 84.7402 358.677C81.7237 359.829 79.0843 360.641 77.0967 360.924C78.466 359.429 80.5927 357.991 82.3379 357.04C149.509 320.415 217.238 284.788 284.625 248.541H284.626C288.537 246.437 292.606 244.714 296.827 243.368L297.674 243.103C299.579 242.521 300.017 240.955 300.515 239.682L300.588 239.494L300.51 239.307C298.735 235.073 296.919 228.405 294.947 221.795C292.989 215.227 290.873 208.699 288.503 204.871L288.418 204.734L288.27 204.673C285.418 203.485 280.298 200.668 275.114 197.696C269.935 194.727 264.748 191.634 261.742 189.891H261.741C256.546 186.769 251.296 183.736 245.996 180.795L245.99 180.792C227.899 171.064 205.315 157.815 187.515 147.132C199.441 143.097 214.023 139.336 226.132 136.02H226.133L285.935 119.551L285.939 119.549L462.903 68.8592H462.904L592.95 31.4315C597.875 30.0473 608.427 26.8446 618.702 23.9041C623.849 22.4311 628.938 21.0202 633.243 19.9285C637.56 18.8339 641.058 18.0686 643.04 17.8729L643.108 17.866L643.172 17.8416C645.955 16.759 649.592 15.1382 653.128 13.6473C656.095 12.3963 658.989 11.2377 661.303 10.532C660.684 11.4394 659.801 12.7363 658.936 14.0008Z" fill="#6186B8"/>
<path d="M658.936 14.0008C658.236 15.0235 657.547 16.0263 657.017 16.7889C656.751 17.1704 656.526 17.4907 656.36 17.7225C656.277 17.8386 656.209 17.9304 656.16 17.9959C656.098 18.0783 656.09 18.0842 656.11 18.0652L656.041 18.1307L656.001 18.2166C653.42 23.7796 650.268 29.0572 647.136 34.3651C635.367 54.3007 622.703 73.6999 610.374 93.3133L515.706 243.331L485.589 290.909C478.316 302.405 470.693 313.927 464.412 326.032C458.092 322.334 438.891 310.289 420.337 298.93C410.832 293.111 401.5 287.474 394.171 283.243C390.507 281.128 387.339 279.361 384.897 278.097C383.677 277.466 382.633 276.956 381.796 276.592C380.977 276.235 380.307 275.993 379.856 275.933L379.677 275.91L379.524 276.006C376.36 277.995 372.239 281.549 368.225 285.252C364.206 288.958 360.251 292.854 357.44 295.524L357.438 295.526C347.678 304.904 337.701 314.053 327.52 322.971C321.266 303.488 313.91 278.201 306.786 259.726L306.658 259.394L306.303 259.407C305.949 259.419 305.359 259.579 304.628 259.819C303.871 260.068 302.895 260.426 301.733 260.878C299.409 261.782 296.32 263.068 292.711 264.618C285.491 267.718 276.173 271.881 266.698 276.167C247.739 284.744 228.164 293.81 223.449 295.885C189.475 310.829 149.639 329.771 115.031 344.674C110.607 346.579 103.007 350.494 95.5342 353.995C91.7845 355.751 88.0553 357.41 84.7402 358.677C81.7237 359.829 79.0843 360.641 77.0967 360.924C78.466 359.429 80.5927 357.991 82.3379 357.04C149.509 320.415 217.238 284.788 284.625 248.541H284.626C288.537 246.437 292.606 244.714 296.827 243.368L297.674 243.103C299.579 242.521 300.017 240.955 300.515 239.682L300.588 239.494L300.51 239.307C298.735 235.073 296.919 228.405 294.947 221.795C292.989 215.227 290.873 208.699 288.503 204.871L288.418 204.734L288.27 204.673C285.418 203.485 280.298 200.668 275.114 197.696C269.935 194.727 264.748 191.634 261.742 189.891H261.741C256.546 186.769 251.296 183.736 245.996 180.795L245.99 180.792C227.899 171.064 205.315 157.815 187.515 147.132C199.441 143.097 214.023 139.336 226.132 136.02H226.133L285.935 119.551L285.939 119.549L462.903 68.8592H462.904L592.95 31.4315C597.875 30.0473 608.427 26.8446 618.702 23.9041C623.849 22.4311 628.938 21.0202 633.243 19.9285C637.56 18.8339 641.058 18.0686 643.04 17.8729L643.108 17.866L643.172 17.8416C645.955 16.759 649.592 15.1382 653.128 13.6473C656.095 12.3963 658.989 11.2377 661.303 10.532C660.684 11.4394 659.801 12.7363 658.936 14.0008Z" stroke="white" stroke-opacity="0.0117647"/>
<path d="M658.936 14.0008C658.236 15.0235 657.547 16.0263 657.017 16.7889C656.751 17.1704 656.526 17.4907 656.36 17.7225C656.277 17.8386 656.209 17.9304 656.16 17.9959C656.098 18.0783 656.09 18.0842 656.11 18.0652L656.041 18.1307L656.001 18.2166C653.42 23.7796 650.268 29.0572 647.136 34.3651C635.367 54.3007 622.703 73.6999 610.374 93.3133L515.706 243.331L485.589 290.909C478.316 302.405 470.693 313.927 464.412 326.032C458.092 322.334 438.891 310.289 420.337 298.93C410.832 293.111 401.5 287.474 394.171 283.243C390.507 281.128 387.339 279.361 384.897 278.097C383.677 277.466 382.633 276.956 381.796 276.592C380.977 276.235 380.307 275.993 379.856 275.933L379.677 275.91L379.524 276.006C376.36 277.995 372.239 281.549 368.225 285.252C364.206 288.958 360.251 292.854 357.44 295.524L357.438 295.526C347.678 304.904 337.701 314.053 327.52 322.971C321.266 303.488 313.91 278.201 306.786 259.726L306.658 259.394L306.303 259.407C305.949 259.419 305.359 259.579 304.628 259.819C303.871 260.068 302.895 260.426 301.733 260.878C299.409 261.782 296.32 263.068 292.711 264.618C285.491 267.718 276.173 271.881 266.698 276.167C247.739 284.744 228.164 293.81 223.449 295.885C189.475 310.829 149.639 329.771 115.031 344.674C110.607 346.579 103.007 350.494 95.5342 353.995C91.7845 355.751 88.0553 357.41 84.7402 358.677C81.7237 359.829 79.0843 360.641 77.0967 360.924C78.466 359.429 80.5927 357.991 82.3379 357.04C149.509 320.415 217.238 284.788 284.625 248.541H284.626C288.537 246.437 292.606 244.714 296.827 243.368L297.674 243.103C299.579 242.521 300.017 240.955 300.515 239.682L300.588 239.494L300.51 239.307C298.735 235.073 296.919 228.405 294.947 221.795C292.989 215.227 290.873 208.699 288.503 204.871L288.418 204.734L288.27 204.673C285.418 203.485 280.298 200.668 275.114 197.696C269.935 194.727 264.748 191.634 261.742 189.891H261.741C256.546 186.769 251.296 183.736 245.996 180.795L245.99 180.792C227.899 171.064 205.315 157.815 187.515 147.132C199.441 143.097 214.023 139.336 226.132 136.02H226.133L285.935 119.551L285.939 119.549L462.903 68.8592H462.904L592.95 31.4315C597.875 30.0473 608.427 26.8446 618.702 23.9041C623.849 22.4311 628.938 21.0202 633.243 19.9285C637.56 18.8339 641.058 18.0686 643.04 17.8729L643.108 17.866L643.172 17.8416C645.955 16.759 649.592 15.1382 653.128 13.6473C656.095 12.3963 658.989 11.2377 661.303 10.532C660.684 11.4394 659.801 12.7363 658.936 14.0008Z" stroke="#1F3E65"/>
<path d="M641.422 18.0991C639.279 19.8718 636.39 21.6827 633.365 23.4379C629.75 25.5351 625.928 27.5643 623.123 29.3051C604.414 40.9129 585.239 50.9448 565.774 61.1655C547.669 70.6714 529.893 80.3738 511.632 89.6528L409.823 140.328L409.817 140.331L347.217 172.599C343.964 174.254 339.145 176.555 333.608 179.212C328.073 181.869 321.825 184.879 315.728 187.948C309.631 191.016 303.678 194.147 298.732 197.042C293.986 199.821 290.125 202.411 287.964 204.541C285.062 203.287 280.118 200.564 275.115 197.696C271.231 195.469 267.341 193.172 264.372 191.428L261.743 189.892C256.547 186.769 251.297 183.737 245.997 180.795L245.991 180.792L242.487 178.895C225.046 169.39 204.185 157.135 187.516 147.131C199.442 143.097 214.023 139.336 226.131 136.021H226.132L285.934 119.55L285.939 119.549L462.903 68.8588H462.904L592.95 31.4321C597.875 30.048 608.427 26.8443 618.702 23.9037C623.849 22.4307 628.937 21.0208 633.243 19.9291C636.557 19.0887 639.389 18.4425 641.422 18.0991Z" fill="#7E9CC7"/>
<path d="M641.422 18.0991C639.279 19.8718 636.39 21.6827 633.365 23.4379C629.75 25.5351 625.928 27.5643 623.123 29.3051C604.414 40.9129 585.239 50.9448 565.774 61.1655C547.669 70.6714 529.893 80.3738 511.632 89.6528L409.823 140.328L409.817 140.331L347.217 172.599C343.964 174.254 339.145 176.555 333.608 179.212C328.073 181.869 321.825 184.879 315.728 187.948C309.631 191.016 303.678 194.147 298.732 197.042C293.986 199.821 290.125 202.411 287.964 204.541C285.062 203.287 280.118 200.564 275.115 197.696C271.231 195.469 267.341 193.172 264.372 191.428L261.743 189.892C256.547 186.769 251.297 183.737 245.997 180.795L245.991 180.792L242.487 178.895C225.046 169.39 204.185 157.135 187.516 147.131C199.442 143.097 214.023 139.336 226.131 136.021H226.132L285.934 119.55L285.939 119.549L462.903 68.8588H462.904L592.95 31.4321C597.875 30.048 608.427 26.8443 618.702 23.9037C623.849 22.4307 628.937 21.0208 633.243 19.9291C636.557 19.0887 639.389 18.4425 641.422 18.0991Z" stroke="white" stroke-opacity="0.0117647"/>
<path d="M641.422 18.0991C639.279 19.8718 636.39 21.6827 633.365 23.4379C629.75 25.5351 625.928 27.5643 623.123 29.3051C604.414 40.9129 585.239 50.9448 565.774 61.1655C547.669 70.6714 529.893 80.3738 511.632 89.6528L409.823 140.328L409.817 140.331L347.217 172.599C343.964 174.254 339.145 176.555 333.608 179.212C328.073 181.869 321.825 184.879 315.728 187.948C309.631 191.016 303.678 194.147 298.732 197.042C293.986 199.821 290.125 202.411 287.964 204.541C285.062 203.287 280.118 200.564 275.115 197.696C271.231 195.469 267.341 193.172 264.372 191.428L261.743 189.892C256.547 186.769 251.297 183.737 245.997 180.795L245.991 180.792L242.487 178.895C225.046 169.39 204.185 157.135 187.516 147.131C199.442 143.097 214.023 139.336 226.131 136.021H226.132L285.934 119.55L285.939 119.549L462.903 68.8588H462.904L592.95 31.4321C597.875 30.048 608.427 26.8443 618.702 23.9037C623.849 22.4307 628.937 21.0208 633.243 19.9291C636.557 19.0887 639.389 18.4425 641.422 18.0991Z" stroke="#1F3E65"/>
<path d="M364.445 139.792C365.672 139.675 366.732 139.674 367.606 139.789C367.59 139.798 367.575 139.809 367.559 139.818C366.937 140.167 366.036 140.634 364.888 141.202C362.595 142.338 359.343 143.87 355.429 145.675C347.603 149.285 337.148 153.982 326.46 158.779C315.775 163.577 304.857 168.475 296.113 172.485C287.388 176.485 280.779 179.622 278.748 180.888C277.914 181.408 276.618 182.031 275.066 182.732C273.497 183.439 271.768 184.181 269.969 184.988C268.196 185.784 266.42 186.616 264.878 187.449C263.505 188.192 262.29 188.951 261.429 189.704C256.672 186.85 251.87 184.072 247.025 181.369C270.218 174.38 293.079 166.334 315.536 157.253C320.714 155.192 331.785 150.192 342.772 146.029C348.252 143.952 353.676 142.097 358.28 140.941C360.582 140.362 362.667 139.961 364.445 139.792Z" fill="#A9BBD6"/>
<path d="M364.445 139.792C365.672 139.675 366.732 139.674 367.606 139.789C367.59 139.798 367.575 139.809 367.559 139.818C366.937 140.167 366.036 140.634 364.888 141.202C362.595 142.338 359.343 143.87 355.429 145.675C347.603 149.285 337.148 153.982 326.46 158.779C315.775 163.577 304.857 168.475 296.113 172.485C287.388 176.485 280.779 179.622 278.748 180.888C277.914 181.408 276.618 182.031 275.066 182.732C273.497 183.439 271.768 184.181 269.969 184.988C268.196 185.784 266.42 186.616 264.878 187.449C263.505 188.192 262.29 188.951 261.429 189.704C256.672 186.85 251.87 184.072 247.025 181.369C270.218 174.38 293.079 166.334 315.536 157.253C320.714 155.192 331.785 150.192 342.772 146.029C348.252 143.952 353.676 142.097 358.28 140.941C360.582 140.362 362.667 139.961 364.445 139.792Z" stroke="white" stroke-opacity="0.0117647"/>
<path d="M364.445 139.792C365.672 139.675 366.732 139.674 367.606 139.789C367.59 139.798 367.575 139.809 367.559 139.818C366.937 140.167 366.036 140.634 364.888 141.202C362.595 142.338 359.343 143.87 355.429 145.675C347.603 149.285 337.148 153.982 326.46 158.779C315.775 163.577 304.857 168.475 296.113 172.485C287.388 176.485 280.779 179.622 278.748 180.888C277.914 181.408 276.618 182.031 275.066 182.732C273.497 183.439 271.768 184.181 269.969 184.988C268.196 185.784 266.42 186.616 264.878 187.449C263.505 188.192 262.29 188.951 261.429 189.704C256.672 186.85 251.87 184.072 247.025 181.369C270.218 174.38 293.079 166.334 315.536 157.253C320.714 155.192 331.785 150.192 342.772 146.029C348.252 143.952 353.676 142.097 358.28 140.941C360.582 140.362 362.667 139.961 364.445 139.792Z" stroke="#1F3E65"/>
<path d="M658.936 14.0008C658.236 15.0236 657.547 16.0262 657.016 16.7889C656.751 17.1704 656.526 17.4907 656.36 17.7225C656.277 17.8385 656.21 17.9304 656.161 17.9959C656.157 18.0008 656.153 18.0052 656.15 18.0096C655.097 18.4114 653.456 19.2794 651.545 20.3817C649.538 21.5398 647.194 22.9758 644.844 24.4481C642.494 25.9207 640.134 27.4322 638.094 28.743C636.054 30.0544 634.338 31.1627 633.266 31.8328C616.49 42.2282 599.788 52.7406 583.161 63.3709L576.04 67.9334C564.281 75.3827 552.434 82.6107 540.557 89.8524C528.681 97.0938 516.775 104.349 504.906 111.85L504.905 111.851C460.046 140.249 415.474 169.099 371.199 198.397C365.435 202.186 359.605 205.875 353.712 209.46L351.184 210.989C348.61 212.525 343.895 215.253 339.37 218.038C334.906 220.785 330.556 223.631 328.618 225.471C319.392 230.293 309.791 234.423 300.314 238.827C298.602 234.579 296.846 228.161 294.948 221.795C293.046 215.418 290.996 209.079 288.708 205.212C290.775 203.189 294.518 200.669 299.238 197.905C304.157 195.025 310.088 191.906 316.177 188.842C322.265 185.778 328.505 182.771 334.041 180.114C339.572 177.459 344.407 175.151 347.673 173.489L347.675 173.488L410.267 141.222L410.268 141.223L512.079 90.5477L512.083 90.5457C530.35 81.2633 548.154 71.5469 566.239 62.0516C585.698 51.8343 604.905 41.7852 623.65 30.1551C626.446 28.4199 630.195 26.4332 633.867 24.3026C637.468 22.2127 640.98 19.9904 643.262 17.8045C646.033 16.7221 649.631 15.122 653.128 13.6473C656.095 12.3965 658.989 11.2377 661.302 10.532C660.684 11.4393 659.801 12.7365 658.936 14.0008Z" fill="#255892"/>
<path d="M658.936 14.0008C658.236 15.0236 657.547 16.0262 657.016 16.7889C656.751 17.1704 656.526 17.4907 656.36 17.7225C656.277 17.8385 656.21 17.9304 656.161 17.9959C656.157 18.0008 656.153 18.0052 656.15 18.0096C655.097 18.4114 653.456 19.2794 651.545 20.3817C649.538 21.5398 647.194 22.9758 644.844 24.4481C642.494 25.9207 640.134 27.4322 638.094 28.743C636.054 30.0544 634.338 31.1627 633.266 31.8328C616.49 42.2282 599.788 52.7406 583.161 63.3709L576.04 67.9334C564.281 75.3827 552.434 82.6107 540.557 89.8524C528.681 97.0938 516.775 104.349 504.906 111.85L504.905 111.851C460.046 140.249 415.474 169.099 371.199 198.397C365.435 202.186 359.605 205.875 353.712 209.46L351.184 210.989C348.61 212.525 343.895 215.253 339.37 218.038C334.906 220.785 330.556 223.631 328.618 225.471C319.392 230.293 309.791 234.423 300.314 238.827C298.602 234.579 296.846 228.161 294.948 221.795C293.046 215.418 290.996 209.079 288.708 205.212C290.775 203.189 294.518 200.669 299.238 197.905C304.157 195.025 310.088 191.906 316.177 188.842C322.265 185.778 328.505 182.771 334.041 180.114C339.572 177.459 344.407 175.151 347.673 173.489L347.675 173.488L410.267 141.222L410.268 141.223L512.079 90.5477L512.083 90.5457C530.35 81.2633 548.154 71.5469 566.239 62.0516C585.698 51.8343 604.905 41.7852 623.65 30.1551C626.446 28.4199 630.195 26.4332 633.867 24.3026C637.468 22.2127 640.98 19.9904 643.262 17.8045C646.033 16.7221 649.631 15.122 653.128 13.6473C656.095 12.3965 658.989 11.2377 661.302 10.532C660.684 11.4393 659.801 12.7365 658.936 14.0008Z" stroke="white" stroke-opacity="0.0117647"/>
<path d="M658.936 14.0008C658.236 15.0236 657.547 16.0262 657.016 16.7889C656.751 17.1704 656.526 17.4907 656.36 17.7225C656.277 17.8385 656.21 17.9304 656.161 17.9959C656.157 18.0008 656.153 18.0052 656.15 18.0096C655.097 18.4114 653.456 19.2794 651.545 20.3817C649.538 21.5398 647.194 22.9758 644.844 24.4481C642.494 25.9207 640.134 27.4322 638.094 28.743C636.054 30.0544 634.338 31.1627 633.266 31.8328C616.49 42.2282 599.788 52.7406 583.161 63.3709L576.04 67.9334C564.281 75.3827 552.434 82.6107 540.557 89.8524C528.681 97.0938 516.775 104.349 504.906 111.85L504.905 111.851C460.046 140.249 415.474 169.099 371.199 198.397C365.435 202.186 359.605 205.875 353.712 209.46L351.184 210.989C348.61 212.525 343.895 215.253 339.37 218.038C334.906 220.785 330.556 223.631 328.618 225.471C319.392 230.293 309.791 234.423 300.314 238.827C298.602 234.579 296.846 228.161 294.948 221.795C293.046 215.418 290.996 209.079 288.708 205.212C290.775 203.189 294.518 200.669 299.238 197.905C304.157 195.025 310.088 191.906 316.177 188.842C322.265 185.778 328.505 182.771 334.041 180.114C339.572 177.459 344.407 175.151 347.673 173.489L347.675 173.488L410.267 141.222L410.268 141.223L512.079 90.5477L512.083 90.5457C530.35 81.2633 548.154 71.5469 566.239 62.0516C585.698 51.8343 604.905 41.7852 623.65 30.1551C626.446 28.4199 630.195 26.4332 633.867 24.3026C637.468 22.2127 640.98 19.9904 643.262 17.8045C646.033 16.7221 649.631 15.122 653.128 13.6473C656.095 12.3965 658.989 11.2377 661.302 10.532C660.684 11.4393 659.801 12.7365 658.936 14.0008Z" stroke="#1F3E65"/>
<path d="M466.084 165.11C466.372 164.997 466.823 165.024 467.389 165.181C467.866 165.314 468.348 165.516 468.751 165.696L468.981 166.167C468.977 166.17 468.973 166.173 468.968 166.177C468.769 166.304 468.49 166.471 468.139 166.676C467.437 167.084 466.463 167.628 465.301 168.265C462.976 169.54 459.906 171.184 456.768 172.851C450.497 176.183 443.938 179.617 442.53 180.385C413.472 196.248 384.37 211.441 356.599 229.658C354.174 231.248 349.074 235.488 344.222 239.317C341.784 241.241 339.4 243.069 337.422 244.431C336.432 245.113 335.552 245.672 334.823 246.068C334.092 246.465 333.574 246.66 333.268 246.694C329.117 246.404 323.462 247.993 318.297 250.434C313.203 252.843 308.466 256.138 306.045 259.434C305.691 259.491 305.203 259.63 304.628 259.819C303.871 260.068 302.895 260.426 301.733 260.878C299.409 261.782 296.32 263.068 292.711 264.618C285.491 267.718 276.173 271.88 266.698 276.167C247.739 284.744 228.164 293.81 223.449 295.885C189.475 310.829 149.639 329.771 115.031 344.674C110.607 346.578 103.007 350.494 95.5342 353.995C91.7846 355.751 88.0553 357.41 84.7402 358.677C81.7237 359.829 79.0843 360.641 77.0967 360.924C78.466 359.429 80.5928 357.991 82.3379 357.04C149.509 320.415 217.238 284.788 284.625 248.541H284.626C288.537 246.437 292.606 244.714 296.827 243.368L297.674 243.103C299.486 242.549 299.969 241.105 300.44 239.87C309.973 235.433 319.728 231.246 329.074 226.361C332.356 225.728 337.057 224.129 342.45 221.998C347.894 219.847 354.075 217.143 360.269 214.315C369.559 210.073 378.893 205.545 385.833 202.174L391.885 199.241C407.865 191.517 423.938 183.986 440.101 176.65L440.104 176.648C448.244 172.883 457.651 168.426 466.084 165.11Z" fill="url(#paint0_linear_4_113)"/>
<path d="M466.084 165.11C466.372 164.997 466.823 165.024 467.389 165.181C467.866 165.314 468.348 165.516 468.751 165.696L468.981 166.167C468.977 166.17 468.973 166.173 468.968 166.177C468.769 166.304 468.49 166.471 468.139 166.676C467.437 167.084 466.463 167.628 465.301 168.265C462.976 169.54 459.906 171.184 456.768 172.851C450.497 176.183 443.938 179.617 442.53 180.385C413.472 196.248 384.37 211.441 356.599 229.658C354.174 231.248 349.074 235.488 344.222 239.317C341.784 241.241 339.4 243.069 337.422 244.431C336.432 245.113 335.552 245.672 334.823 246.068C334.092 246.465 333.574 246.66 333.268 246.694C329.117 246.404 323.462 247.993 318.297 250.434C313.203 252.843 308.466 256.138 306.045 259.434C305.691 259.491 305.203 259.63 304.628 259.819C303.871 260.068 302.895 260.426 301.733 260.878C299.409 261.782 296.32 263.068 292.711 264.618C285.491 267.718 276.173 271.88 266.698 276.167C247.739 284.744 228.164 293.81 223.449 295.885C189.475 310.829 149.639 329.771 115.031 344.674C110.607 346.578 103.007 350.494 95.5342 353.995C91.7846 355.751 88.0553 357.41 84.7402 358.677C81.7237 359.829 79.0843 360.641 77.0967 360.924C78.466 359.429 80.5928 357.991 82.3379 357.04C149.509 320.415 217.238 284.788 284.625 248.541H284.626C288.537 246.437 292.606 244.714 296.827 243.368L297.674 243.103C299.486 242.549 299.969 241.105 300.44 239.87C309.973 235.433 319.728 231.246 329.074 226.361C332.356 225.728 337.057 224.129 342.45 221.998C347.894 219.847 354.075 217.143 360.269 214.315C369.559 210.073 378.893 205.545 385.833 202.174L391.885 199.241C407.865 191.517 423.938 183.986 440.101 176.65L440.104 176.648C448.244 172.883 457.651 168.426 466.084 165.11Z" stroke="white" stroke-opacity="0.0117647"/>
<path d="M466.084 165.11C466.372 164.997 466.823 165.024 467.389 165.181C467.866 165.314 468.348 165.516 468.751 165.696L468.981 166.167C468.977 166.17 468.973 166.173 468.968 166.177C468.769 166.304 468.49 166.471 468.139 166.676C467.437 167.084 466.463 167.628 465.301 168.265C462.976 169.54 459.906 171.184 456.768 172.851C450.497 176.183 443.938 179.617 442.53 180.385C413.472 196.248 384.37 211.441 356.599 229.658C354.174 231.248 349.074 235.488 344.222 239.317C341.784 241.241 339.4 243.069 337.422 244.431C336.432 245.113 335.552 245.672 334.823 246.068C334.092 246.465 333.574 246.66 333.268 246.694C329.117 246.404 323.462 247.993 318.297 250.434C313.203 252.843 308.466 256.138 306.045 259.434C305.691 259.491 305.203 259.63 304.628 259.819C303.871 260.068 302.895 260.426 301.733 260.878C299.409 261.782 296.32 263.068 292.711 264.618C285.491 267.718 276.173 271.88 266.698 276.167C247.739 284.744 228.164 293.81 223.449 295.885C189.475 310.829 149.639 329.771 115.031 344.674C110.607 346.578 103.007 350.494 95.5342 353.995C91.7846 355.751 88.0553 357.41 84.7402 358.677C81.7237 359.829 79.0843 360.641 77.0967 360.924C78.466 359.429 80.5928 357.991 82.3379 357.04C149.509 320.415 217.238 284.788 284.625 248.541H284.626C288.537 246.437 292.606 244.714 296.827 243.368L297.674 243.103C299.486 242.549 299.969 241.105 300.44 239.87C309.973 235.433 319.728 231.246 329.074 226.361C332.356 225.728 337.057 224.129 342.45 221.998C347.894 219.847 354.075 217.143 360.269 214.315C369.559 210.073 378.893 205.545 385.833 202.174L391.885 199.241C407.865 191.517 423.938 183.986 440.101 176.65L440.104 176.648C448.244 172.883 457.651 168.426 466.084 165.11Z" stroke="#1F3E65"/>
<path d="M318.724 251.338C323.796 248.94 329.228 247.439 333.122 247.687C336.527 250.01 347.438 256.441 357.808 262.696C363.062 265.865 368.185 268.994 372.145 271.534C374.125 272.804 375.809 273.924 377.071 274.826C377.703 275.277 378.224 275.67 378.622 275.998C378.775 276.123 378.904 276.237 379.013 276.336C375.923 278.374 372.026 281.745 368.225 285.251C364.206 288.957 360.251 292.854 357.44 295.524L357.438 295.526C347.677 304.903 337.701 314.054 327.519 322.971C321.294 303.578 313.976 278.434 306.883 259.982C309.169 256.897 313.711 253.708 318.724 251.338Z" fill="url(#paint1_linear_4_113)"/>
<path d="M318.724 251.338C323.796 248.94 329.228 247.439 333.122 247.687C336.527 250.01 347.438 256.441 357.808 262.696C363.062 265.865 368.185 268.994 372.145 271.534C374.125 272.804 375.809 273.924 377.071 274.826C377.703 275.277 378.224 275.67 378.622 275.998C378.775 276.123 378.904 276.237 379.013 276.336C375.923 278.374 372.026 281.745 368.225 285.251C364.206 288.957 360.251 292.854 357.44 295.524L357.438 295.526C347.677 304.903 337.701 314.054 327.519 322.971C321.294 303.578 313.976 278.434 306.883 259.982C309.169 256.897 313.711 253.708 318.724 251.338Z" stroke="white" stroke-opacity="0.0117647"/>
<path d="M318.724 251.338C323.796 248.94 329.228 247.439 333.122 247.687C336.527 250.01 347.438 256.441 357.808 262.696C363.062 265.865 368.185 268.994 372.145 271.534C374.125 272.804 375.809 273.924 377.071 274.826C377.703 275.277 378.224 275.67 378.622 275.998C378.775 276.123 378.904 276.237 379.013 276.336C375.923 278.374 372.026 281.745 368.225 285.251C364.206 288.957 360.251 292.854 357.44 295.524L357.438 295.526C347.677 304.903 337.701 314.054 327.519 322.971C321.294 303.578 313.976 278.434 306.883 259.982C309.169 256.897 313.711 253.708 318.724 251.338Z" stroke="#1F3E65"/>
<path d="M245.576 217.874C254.038 219.958 258.189 223.649 264.97 228.945C252.224 238.338 239.974 241.879 225.17 247.98L225.168 247.981L187.004 263.948L187 263.95C143.391 282.629 99.673 301.054 55.8496 319.226C54.9592 318.012 53.735 316.604 52.7441 315.436C58.8983 311.801 65.5844 308.555 72.3496 305.342C79.2944 302.043 86.3257 298.777 92.9092 295.168C131.669 273.92 170.624 253.246 210.622 234.427L210.621 234.426C215.169 232.299 221.712 228.586 228.198 225.208C234.672 221.836 241.084 218.803 245.576 217.874Z" fill="#6186B8"/>
<path d="M245.576 217.874C254.038 219.958 258.189 223.649 264.97 228.945C252.224 238.338 239.974 241.879 225.17 247.98L225.168 247.981L187.004 263.948L187 263.95C143.391 282.629 99.673 301.054 55.8496 319.226C54.9592 318.012 53.735 316.604 52.7441 315.436C58.8983 311.801 65.5844 308.555 72.3496 305.342C79.2944 302.043 86.3257 298.777 92.9092 295.168C131.669 273.92 170.624 253.246 210.622 234.427L210.621 234.426C215.169 232.299 221.712 228.586 228.198 225.208C234.672 221.836 241.084 218.803 245.576 217.874Z" stroke="white" stroke-opacity="0.0117647"/>
<path d="M245.576 217.874C254.038 219.958 258.189 223.649 264.97 228.945C252.224 238.338 239.974 241.879 225.17 247.98L225.168 247.981L187.004 263.948L187 263.95C143.391 282.629 99.673 301.054 55.8496 319.226C54.9592 318.012 53.735 316.604 52.7441 315.436C58.8983 311.801 65.5844 308.555 72.3496 305.342C79.2944 302.043 86.3257 298.777 92.9092 295.168C131.669 273.92 170.624 253.246 210.622 234.427L210.621 234.426C215.169 232.299 221.712 228.586 228.198 225.208C234.672 221.836 241.084 218.803 245.576 217.874Z" stroke="#1F3E65"/>
<path d="M214.122 197.176C215.739 197.29 217.52 197.275 219.218 197.309C220.979 197.344 222.663 197.433 224.101 197.757C225.54 198.082 226.666 198.627 227.38 199.525C228.049 200.365 228.415 201.59 228.236 203.428C215.957 207.416 200.235 213.962 184.37 220.562C168.357 227.224 152.197 233.941 139.223 238.173C139.262 238.161 139.244 238.171 139.099 238.171C138.982 238.171 138.823 238.165 138.631 238.15C138.249 238.12 137.759 238.057 137.251 237.961C136.742 237.865 136.227 237.737 135.789 237.578C135.537 237.486 135.33 237.389 135.167 237.293C135.783 236.369 136.648 235.646 137.677 235.163C150.516 229.128 163.163 222.406 175.838 215.803C188.483 209.217 201.162 202.746 214.122 197.176Z" fill="#7E9CC7"/>
<path d="M214.122 197.176C215.739 197.29 217.52 197.275 219.218 197.309C220.979 197.344 222.663 197.433 224.101 197.757C225.54 198.082 226.666 198.627 227.38 199.525C228.049 200.365 228.415 201.59 228.236 203.428C215.957 207.416 200.235 213.962 184.37 220.562C168.357 227.224 152.197 233.941 139.223 238.173C139.262 238.161 139.244 238.171 139.099 238.171C138.982 238.171 138.823 238.165 138.631 238.15C138.249 238.12 137.759 238.057 137.251 237.961C136.742 237.865 136.227 237.737 135.789 237.578C135.537 237.486 135.33 237.389 135.167 237.293C135.783 236.369 136.648 235.646 137.677 235.163C150.516 229.128 163.163 222.406 175.838 215.803C188.483 209.217 201.162 202.746 214.122 197.176Z" stroke="white" stroke-opacity="0.0117647"/>
<path d="M214.122 197.176C215.739 197.29 217.52 197.275 219.218 197.309C220.979 197.344 222.663 197.433 224.101 197.757C225.54 198.082 226.666 198.627 227.38 199.525C228.049 200.365 228.415 201.59 228.236 203.428C215.957 207.416 200.235 213.962 184.37 220.562C168.357 227.224 152.197 233.941 139.223 238.173C139.262 238.161 139.244 238.171 139.099 238.171C138.982 238.171 138.823 238.165 138.631 238.15C138.249 238.12 137.759 238.057 137.251 237.961C136.742 237.865 136.227 237.737 135.789 237.578C135.537 237.486 135.33 237.389 135.167 237.293C135.783 236.369 136.648 235.646 137.677 235.163C150.516 229.128 163.163 222.406 175.838 215.803C188.483 209.217 201.162 202.746 214.122 197.176Z" stroke="#1F3E65"/>
<path d="M235.734 186.173C241.245 189.361 246.808 192.456 252.421 195.458C244.2 197.089 237.07 200.006 229.268 203.044C229.361 201.268 228.968 199.913 228.163 198.901C227.247 197.75 225.865 197.129 224.322 196.781C222.777 196.433 221.004 196.344 219.239 196.309C218.066 196.285 216.901 196.282 215.782 196.251C222.027 192.744 229.293 189.235 235.734 186.173Z" fill="#A9BBD6"/>
<path d="M235.734 186.173C241.245 189.361 246.808 192.456 252.421 195.458C244.2 197.089 237.07 200.006 229.268 203.044C229.361 201.268 228.968 199.913 228.163 198.901C227.247 197.75 225.865 197.129 224.322 196.781C222.777 196.433 221.004 196.344 219.239 196.309C218.066 196.285 216.901 196.282 215.782 196.251C222.027 192.744 229.293 189.235 235.734 186.173Z" stroke="white" stroke-opacity="0.0117647"/>
<path d="M235.734 186.173C241.245 189.361 246.808 192.456 252.421 195.458C244.2 197.089 237.07 200.006 229.268 203.044C229.361 201.268 228.968 199.913 228.163 198.901C227.247 197.75 225.865 197.129 224.322 196.781C222.777 196.433 221.004 196.344 219.239 196.309C218.066 196.285 216.901 196.282 215.782 196.251C222.027 192.744 229.293 189.235 235.734 186.173Z" stroke="#1F3E65"/>
<path d="M206.826 224.118C202.187 226.709 197.789 228.993 192.767 231.174L192.176 229.43C197.518 227.232 201.648 225.46 206.826 224.118Z" fill="white" fill-opacity="0.0117647"/>
<path d="M206.826 224.118C202.187 226.709 197.789 228.993 192.767 231.174L192.176 229.43C197.518 227.232 201.648 225.46 206.826 224.118Z" stroke="white" stroke-opacity="0.0117647"/>
<path d="M206.826 224.118C202.187 226.709 197.789 228.993 192.767 231.174L192.176 229.43C197.518 227.232 201.648 225.46 206.826 224.118Z" stroke="#1F3E65"/>
<defs>
<linearGradient id="paint0_linear_4_113" x1="94.8627" y1="237.166" x2="450.058" y2="288.496" gradientUnits="userSpaceOnUse">
<stop stop-color="#6C94BE"/>
<stop offset="1" stop-color="#AEBFDC"/>
</linearGradient>
<linearGradient id="paint1_linear_4_113" x1="302.225" y1="273.345" x2="367.58" y2="299.592" gradientUnits="userSpaceOnUse">
<stop stop-color="#1F3E65"/>
<stop offset="1" stop-color="#2D5B98"/>
</linearGradient>
</defs>
</svg>
